<svg width="128" height="128" viewBox="0 0 128 128" fill="none" xmlns="http://www.w3.org/2000/svg">
<path d="M40.6748 78.9113C40.5282 80.5233 38.205 81.7947 37.096 82.6979C35.8468 83.7153 34.7062 84.6895 33.725 85.9303C33.1527 86.6542 32.6487 87.3165 32.155 88.1007C31.8707 88.5522 31.8346 88.5597 32.0857 87.9621C32.7586 86.3612 34.1973 84.7489 35.3759 83.506C36.8083 81.9954 38.1467 80.3906 39.5088 78.819C39.9878 78.2663 40.5243 77.5275 41.1712 77.1681C42.2349 76.5771 39.9072 79.2651 39.0932 80.1697C36.871 82.6387 34.404 84.9257 31.7856 86.9693C30.009 88.3559 28.9056 89.9721 27.3756 91.5871C26.4514 92.5626 25.2738 94.3523 25.1014 95.7315C24.9293 97.1081 25.0898 98.605 25.0898 99.9914C25.0898 100.503 24.9775 101.178 25.1937 101.654C25.3457 101.988 26.2167 102.772 26.5444 102.808C27.4736 102.911 28.322 103.016 29.292 103.016C31.4435 103.016 32.8995 102.054 34.8449 101.146C35.5041 100.838 36.3215 100.582 36.9344 100.188C37.6677 99.7162 38.2413 98.9885 39.0239 98.5483C39.6465 98.1981 40.0677 97.56 40.594 97.2092C41.2811 96.7511 42.1081 96.2732 42.7066 95.6969C43.7271 94.7142 44.5225 93.4595 45.4542 92.4183C46.7732 90.9441 48.1722 89.5225 49.4023 87.9506C51.6767 85.0444 54.1335 82.7146 56.8369 80.2043C57.7743 79.3338 58.8618 78.5484 60.0463 78.0801C61.608 77.4627 63.2484 77.3133 64.7795 76.7179C66.1702 76.177 68.069 75.9483 69.5588 75.7828C70.9289 75.6306 72.2296 75.5865 73.6225 75.5865C75.1771 75.5865 76.7318 75.5865 78.2864 75.5865C79.4065 75.5865 81.6112 76.1156 81.6112 74.4436C81.6112 72.4215 81.819 70.3465 81.819 68.2674C81.819 66.9139 80.6705 66.493 79.9488 65.4505C79.1077 64.2357 78.1459 63.0577 77.0281 62.0796C76.0078 61.1868 75.0117 59.937 73.8187 59.2743C72.4871 58.5345 71.6658 56.5573 70.5978 55.43C69.553 54.3271 68.4174 53.3429 67.2731 52.313C66.1669 51.3175 64.9591 50.6941 63.7405 49.8079C62.1519 48.6525 60.4319 47.7459 58.5455 47.2219C57.2683 46.8672 55.584 46.5637 54.3895 46.0329C53.8065 45.7737 53.1576 45.8713 52.5193 45.8713C51.5553 45.8713 51.6692 46.2296 51.1109 47.0026C50.3482 48.0586 50.4413 49.4207 50.4413 50.6622C50.4413 54.1866 50.6491 57.6708 50.6491 61.2022C50.6491 63.115 50.0182 64.332 49.1945 66.0278C48.3704 67.7245 47.4181 69.4957 46.1814 70.9226C44.9602 72.3317 44.2117 73.9662 43.1568 75.4826C42.2887 76.7305 41.3508 78.0339 40.7902 79.3731C40.4201 80.2571 39.387 81.2903 38.7584 82.0283C37.5834 83.4076 36.3657 84.773 35.1796 86.1381C34.3675 87.0728 33.2724 87.7083 32.5244 88.6779C31.3881 90.1509 30.0516 91.4085 28.9341 92.9147C27.6183 94.6882 26.7522 96.3417 26.7522 98.5599C26.7522 99.5176 28.3756 100.934 29.4536 100.176C30.8328 99.2069 32.0017 97.8982 33.3094 96.8282C34.7525 95.6476 36.3475 94.7246 37.7656 93.5034C39.5336 91.981 41.1777 90.6054 42.7989 88.9318C44.0699 87.6199 45.4225 86.3516 46.7933 85.1453C47.9687 84.1109 49.1889 83.2562 50.4413 82.3169C51.7216 81.3567 53.4575 80.1997 54.3549 78.8536C55.9588 76.4477 51.0253 83.5978 49.1022 85.7571C46.3005 88.9028 43.749 91.9604 40.4439 94.6117C38.6128 96.0806 37.046 98.2389 35.018 99.4372C34.0271 100.023 32.714 100.315 31.5778 100.315C29.6882 100.315 31.0523 94.3529 31.3469 93.3534C32.5444 89.2903 34.6767 85.896 37.0383 82.4324C38.8384 79.7922 40.4266 76.9653 42.3025 74.3859C44.1763 71.8095 39.1079 79.8989 37.4654 82.6286C34.8811 86.9237 31.8855 90.94 28.8302 94.9118C28.6495 95.1468 26.6866 98.3435 27.9298 97.2207C29.6752 95.6442 31.0598 93.404 32.5013 91.564C35.4201 87.8382 37.5818 83.6594 40.2823 79.7887C41.5983 77.9023 43.0409 76.0275 44.5306 74.2705C45.1127 73.5839 43.7407 77.0489 43.7225 77.0873C41.6359 81.4905 39.0473 85.6763 36.3341 89.7169C35.6513 90.7337 34.9265 91.7177 34.2215 92.7184C33.9747 93.0687 34.0133 93.0105 33.8636 93.2725C33.8242 93.3414 33.926 93.1267 33.9559 93.0532C34.7688 91.0579 35.8536 89.2015 36.8882 87.3156C38.6551 84.0949 40.3684 80.8462 42.4526 77.8146C43.471 76.3333 43.2207 76.9785 42.6027 78.2764C40.4576 82.781 37.9484 86.9934 34.9718 90.9983C33.8748 92.4743 32.4308 93.9619 31.5662 95.6045C31.2517 96.2022 32.6123 93.1694 32.6861 93.0301C33.9743 90.5991 35.6167 87.7791 37.5809 85.8149C38.1443 85.2514 37.7763 86.3741 37.7425 86.4844C37.12 88.5179 36.0564 90.4019 35.0411 92.2566C33.5827 94.9209 32.1749 97.7374 30.2155 100.084C29.5992 100.822 29.1931 101.045 28.3684 100.569C27.8624 100.276 27.3417 99.9959 26.8446 99.6912C26.3577 99.3928 28.5586 98.8256 28.7148 98.7677C30.8223 97.9866 32.8628 97.2224 35.0873 96.8282C35.3452 96.7825 36.998 96.5742 36.8882 96.5742C36.2522 96.5742 35.6654 96.638 35.0642 96.8744C34.3129 97.1699 32.1111 97.8899 31.8087 98.7215C31.4414 99.7316 33.9435 98.1522 34.7871 97.4862C36.2962 96.2949 37.9247 95.229 39.3818 93.9767C40.8318 92.7306 41.9289 91.1467 43.0645 89.6245C47.9629 83.0586 54.5266 77.3271 61.8934 73.7625C63.0998 73.1787 64.3059 72.4695 65.6568 72.4695C67.1807 72.4695 68.7046 72.4695 70.2284 72.4695C71.6522 72.4695 73.076 72.4695 74.4999 72.4695C75.8806 72.4695 77.3402 71.9344 78.7597 71.8577C81.1288 71.7296 78.0281 72.3452 77.2705 72.585C71.4346 74.4318 65.4018 75.6627 59.5383 77.4452C55.7054 78.6104 51.5478 80.0372 48.1671 82.2476C45.6334 83.9043 43.3422 85.9336 40.9287 87.7543C39.8111 88.5975 38.5654 89.2705 37.3962 90.0401C37.2032 90.1671 36.1249 91.0937 36.6573 90.525C38.2036 88.8733 39.4673 86.7641 40.7902 84.9375C43.3133 81.4539 45.4959 77.7277 48.0863 74.2936C49.4902 72.4323 51.0396 70.6565 52.5886 68.9139C53.6335 67.7383 53.0214 69.2216 52.704 69.8374C50.5901 73.9394 47.6 77.6855 44.9 81.4049C43.6104 83.1815 42.3008 84.9392 40.9057 86.6345C40.4338 87.2079 39.537 87.9798 39.2664 88.724C38.8247 89.9387 40.5542 86.4729 41.0326 85.2723C42.6897 81.1139 44.009 76.8293 45.5581 72.6312C47.0574 68.5678 48.9192 64.7648 50.0142 60.5673C50.4422 58.9267 50.9441 57.3036 51.2725 55.5455C51.6973 53.2715 51.7062 50.9545 52.3115 48.7112C52.4128 48.3359 53.1085 46.6284 53.5121 47.9492C54.1684 50.0969 53.9739 52.4593 53.9739 54.6681C53.9739 58.0231 53.9628 61.3326 53.6738 64.6771C53.4367 67.4198 53.6117 70.5382 52.8079 73.1968C52.1763 75.2859 51.0422 77.1994 49.8179 78.9921C49.6859 79.1855 49.0064 80.4485 48.9752 80.0427C48.8003 77.7692 48.6785 75.4887 49.183 73.243C49.8841 70.122 51.1957 67.1028 52.4962 64.1922C52.886 63.32 53.2367 62.4473 53.5583 61.5485C53.7079 61.1304 53.8744 59.9888 54.1355 60.3479C54.6971 61.1201 52.8118 64.6112 52.5424 65.2197C51.2249 68.195 49.8307 71.137 48.4557 74.0858C47.7968 75.4987 45.5371 79.1861 46.4931 80.8969C46.8461 81.5285 48.3579 81.9929 49.0098 81.682C51.0212 80.7227 52.5622 78.6367 54.1124 77.1104C56.0134 75.2389 58.2178 73.685 59.9655 71.6614C60.7851 70.7124 61.4343 69.6161 62.1358 68.5791C63.0674 67.2019 61.7271 69.5665 61.6394 69.6989C59.6158 72.752 57.1586 75.4957 54.5742 78.0801C54.3898 78.2645 51.2965 81.1997 51.4341 80.5506C51.8061 78.7972 52.574 77.1029 53.1543 75.4134C54.1262 72.5832 55.0179 69.6994 55.7171 66.7897C56.5522 63.3147 56.949 60.028 56.8831 56.469C56.8599 55.2168 56.0714 54.0074 55.5901 52.8902C55.2221 52.0358 55.038 51.1632 54.7589 50.2812C54.7028 50.1037 54.3261 48.5587 54.1355 48.8959C53.2223 50.5116 52.8951 52.7395 52.2423 54.4834C51.6264 56.1284 51.2023 57.7253 51.0186 59.4706C50.8088 61.4629 50.6491 63.4933 50.6491 65.4967C50.6491 68.7304 49.4261 71.4272 48.1671 74.3859C48.1284 74.4768 47.3738 75.841 47.3359 75.6327C47.1665 74.7012 47.284 73.5322 47.3474 72.5965C47.4478 71.1161 48.1749 69.7746 48.8136 68.4636C49.5697 66.9116 50.3057 65.1322 51.388 63.7651C52.4354 62.442 50.8515 67.1046 50.3952 68.7292C50.0915 69.8102 49.3171 72.2395 51.2725 71.038C53.4898 69.6756 53.3446 66.9481 53.5121 64.6655C53.6886 62.261 53.5436 59.8822 54.0778 57.508C54.5541 55.3911 54.6667 53.1998 55.1284 51.0893C55.3953 49.8692 55.4256 49.8194 56.6638 49.8194C59.3418 49.8194 61.474 51.7356 63.6943 53.098C66.3705 54.7402 68.8791 56.2336 71.152 58.4777C72.3145 59.6255 73.3275 60.8474 74.3382 62.1258C75.1595 63.1644 75.6526 64.4112 76.5317 65.4159C77.4079 66.4174 78.1527 67.6773 78.8059 68.8331C79.0866 69.3297 79.9954 70.4715 79.7179 71.0958C79.5214 71.538 76.152 67.3719 75.7928 66.9629C73.5964 64.4614 71.0614 62.5351 68.5199 60.4172C65.0692 57.5417 61.6351 54.8864 57.8759 52.4285C56.5478 51.5601 59.6908 53.807 59.977 54.0216C63.5796 56.7235 67.6547 58.8041 71.1173 61.6755C73.7182 63.8323 75.2537 66.4222 76.624 69.4565C76.824 69.8992 77.9176 72.1169 77.409 72.5619C75.8599 73.9174 70.0249 67.6933 68.9585 66.7204C66.067 64.0825 63.1665 61.4752 60.2079 58.9164C59.2771 58.1114 57.2302 56.8832 56.8369 55.6378C56.6947 55.1876 57.9697 55.2356 58.1761 55.2684C59.3556 55.4556 59.9573 56.6309 60.485 57.5773C61.8488 60.0236 63.4818 62.5034 65.4029 64.5616C66.5823 65.8253 68.0137 66.8182 69.2702 68.0134C70.1648 68.8643 71.1015 69.6827 72.0409 70.4839C72.2541 70.6658 73.581 72.0321 73.1376 71.0149C71.3436 66.8992 68.459 63.573 64.8026 60.9713C63.558 60.0858 62.1789 59.5885 60.7967 58.9741C60.5334 58.8571 59.0362 57.9006 59.8616 58.9395C61.4724 60.967 63.9979 62.5622 66.1648 63.9036C68.9533 65.6298 71.8851 67.2241 74.9385 68.429C75.316 68.578 77.176 69.3134 77.1551 69.3064C76.085 68.9497 75.2472 67.756 74.4537 67.0206C71.3853 64.1767 68.2618 61.3711 65.4952 58.2238C64.6352 57.2454 63.6513 56.381 62.8169 55.3838C62.1046 54.5325 61.459 53.5666 60.6119 52.8441C59.4739 51.8734 58.3794 51.7448 57.1024 51.1701C55.1682 50.2997 57.4182 53.2176 57.899 53.6984C60.7685 56.5679 64.7204 57.9672 67.9426 60.3595C70.8827 62.5422 73.3725 65.062 75.9544 67.644C77.0117 68.7013 78.0579 69.8214 78.5404 71.2689C78.7905 72.0192 78.8923 72.845 79.3716 73.5085C79.489 73.6712 80.5518 74.8831 80.7338 74.155C80.9267 73.3834 80.8961 72.5665 81.1032 71.7769C81.291 71.061 81.0872 70.9382 80.5607 70.4724C80.1261 70.0879 78.2635 67.1707 80.0412 67.4939C80.5183 67.5807 79.1307 66.7676 79.0253 66.6858C77.3573 65.3917 75.6228 64.1888 73.9342 62.9223C71.36 60.9917 68.6386 59.0512 65.9108 57.3464C63.7444 55.9924 62.5996 54.057 60.8313 52.2207C60.0353 51.3941 58.7734 50.3812 58.1761 49.4038C58.0786 49.2443 57.5122 48.4026 57.368 48.3764C56.4381 48.2073 55.444 47.8305 55.694 49.0806C56.5756 53.4882 61.063 56.5088 63.625 59.9092C64.7378 61.3862 65.8504 62.9202 66.7305 64.5501C67.2764 65.5611 67.5898 66.7329 68.2428 67.6786C68.8975 68.6268 69.7673 69.4392 70.4709 70.3569C70.7054 70.6628 71.4406 71.4813 71.0827 71.3382C69.7474 70.8041 68.389 68.8206 67.3654 67.8749C65.5922 66.2367 63.9104 64.6161 62.3551 62.7722C61.6133 61.8927 60.9138 60.9266 60.0463 60.1632C59.1978 59.4165 61.0321 62.2132 61.7087 63.1186C63.7939 65.9091 71.393 73.1372 68.9585 70.6455C67.1101 68.7536 65.405 66.7008 63.5789 64.781C63.0201 64.1936 62.4815 63.5846 61.8818 63.0378C61.5741 62.7572 60.9006 61.8478 60.9006 62.2643C60.9006 62.9506 62.3456 64.2234 62.7361 64.7348C63.7943 66.1205 64.802 67.5374 65.8877 68.9023C66.9942 70.2933 66.3353 69.3145 65.6915 68.4752C63.6982 65.8769 61.7542 63.2192 59.4806 60.8559C59.3376 60.7073 57.5089 58.3322 57.5642 59.6322C57.6592 61.8638 58.5485 64.0966 58.9265 66.2933C59.1179 67.4063 59.3536 68.7163 59.3536 69.849C59.3536 70.717 58.9656 68.1426 58.9611 67.2746C58.954 65.8933 58.6563 64.0902 59.1227 62.7492C59.4985 61.6687 58.9188 65.0404 58.6148 66.1432C58.0593 68.1578 57.174 70.093 56.7677 72.1463C56.691 72.5335 56.5011 73.4937 56.5599 72.4003C56.6808 70.1512 57.8622 68.0292 58.8687 66.0739C59.0133 65.7931 60.2118 63.2836 60.1617 63.8343C59.989 65.7342 59.5076 67.512 59.1458 69.3756C59.0436 69.9022 58.8453 70.7248 58.9842 71.2805C58.9923 71.3131 59.7978 69.9767 59.8385 69.9067C60.9245 68.0363 61.8813 65.9758 63.2556 64.2961C63.9218 63.4819 64.2839 63.8588 64.5948 64.7348C65.3916 66.9804 66.821 74.0013 66.3149 71.673C65.9877 70.1679 65.5218 68.6869 64.9988 67.2399C64.8667 66.8744 64.2142 64.4478 64.1445 66.0162C64.0765 67.5479 63.724 68.9721 63.348 70.4493C63.3208 70.5561 63.1215 72.2691 62.9093 71.9154C62.2714 70.8522 62.2343 69.2716 62.0781 68.0827C61.9243 66.9119 61.8703 65.9351 61.8703 67.7825C61.8703 68.705 61.1952 73.8126 62.3321 74.2936C63.5439 74.8062 65.6169 74.3598 66.9267 74.5014C69.9864 74.8321 60.6213 74.6018 57.7489 73.497C56.7937 73.1296 56.1357 72.486 55.3477 71.8692C55.1853 71.7421 54.8246 71.2404 54.7936 71.4883C54.6978 72.2544 54.3906 72.962 54.1009 73.6702C54.0503 73.794 53.8625 74.1323 53.9162 74.1204C58.3213 73.1415 62.7886 73.3007 67.2731 73.3007C67.9545 73.3007 68.9121 73.1225 69.5127 73.5085C69.8599 73.7317 71.0545 74.5335 70.1592 74.5475C65.4774 74.6207 60.7 74.2167 56.0519 74.8939C50.2331 75.7416 45.1243 77.4016 40.6286 81.2664C38.4516 83.1378 37.4833 85.0159 36.8189 87.6735C36.324 89.6534 35.6656 91.5957 35.0757 93.5496C35.0476 93.643 34.5311 95.3932 34.7987 95.2697C36.0476 94.6933 37.0684 92.5572 37.6732 91.4254C38.1012 90.6245 39.2389 88.2205 38.5968 88.8626C37.9805 89.4789 37.6017 90.9249 37.1422 91.7025C36.1964 93.3031 37.1615 92.1711 37.9503 91.4485C40.5933 89.0273 43.3928 86.7285 46.2161 84.5219C49.025 82.3265 52.0713 80.5155 54.9667 78.4495C56.9302 77.0485 58.7466 75.489 60.8082 74.2243C62.779 73.0153 64.9313 72.7495 67.1576 72.3656C68.5151 72.1316 69.4138 72.6151 70.7017 72.989C71.0064 73.0775 73.5976 73.7631 73.7033 73.3931C73.8087 73.0242 73.7736 72.3255 73.7033 71.9385C73.6159 71.4581 72.5176 70.3668 72.8836 70.1838" stroke="white" stroke-width="3" stroke-linecap="round"/>
<path d="M57.5483 50.3623C57.3488 49.0655 57.1055 47.6885 56.5139 46.5053C56.3107 46.0989 55.7097 46.0161 55.5829 45.6038C55.4425 45.1477 56.893 45.0422 57.1493 45.0422C57.7871 45.0422 57.9571 45.1628 58.2133 45.7073C58.6392 46.6123 59.6425 46.684 60.5778 47.0077C60.9103 47.1228 62.2207 47.7164 61.0802 47.5397C60.2553 47.4119 59.5223 46.9475 58.7453 46.6678C57.919 46.3703 57.0562 46.1895 56.2479 45.8403C55.6793 45.5946 55.1314 45.1054 54.5484 44.9388C54.4254 44.9037 53.3241 44.5339 53.7504 44.5102C54.7693 44.4536 55.8255 44.6947 56.8242 44.8797C57.9078 45.0804 59.0399 45.6712 59.9719 46.2097C61.1354 46.882 62.0182 47.408 62.8684 48.4707C63.5275 49.2946 64.1774 50.1214 64.8634 50.9239C65.4293 51.5858 65.9283 52.4887 66.622 53.0223C67.061 53.36 67.3015 53.9483 67.7894 54.2193C68.5356 54.6339 69.1193 55.3812 69.9174 55.6824C72.2013 56.5442 73.9808 58.4896 75.666 60.1748C77.3894 61.8982 78.783 63.7315 80.2915 65.6279C81.2223 66.7979 81.9797 68.2114 82.39 69.6475C82.4988 70.0282 82.716 70.3592 82.8481 70.7411C83.0378 71.2891 82.9813 71.909 83.2176 72.4405C83.4165 72.8881 83.8269 73.9988 83.3801 74.3025C83.1408 74.4652 82.9742 74.4987 82.7595 74.7015C82.5036 74.9432 82.3219 75.5245 81.9984 75.4922C81.24 75.4163 80.5244 74.9885 79.8778 74.6203C78.7485 73.9772 77.5777 73.4156 76.4493 72.773C75.6411 72.3128 74.8874 71.8143 74.1956 71.1918C73.9871 71.0041 73.8246 70.7169 73.5824 70.5785C73.4983 70.5304 73.4593 70.3273 73.5971 70.3273C73.9923 70.3273 74.408 70.6972 74.7055 70.911C75.3556 71.3783 76.1627 71.7287 76.6414 72.3814C77.0308 72.9125 77.3723 73.7082 77.4911 74.3616C77.5874 74.8914 76.2873 75.0703 75.9542 75.167C74.8581 75.4853 73.7209 75.6245 72.5922 75.7655C72.3241 75.7991 71.8752 75.8482 71.7942 76.1719C71.7483 76.3555 71.7615 76.5636 71.979 76.5636C72.5412 76.5636 73.4101 76.6548 73.9075 76.9035C74.5493 77.2243 75.6469 77.2286 76.368 77.2286C77.9571 77.2286 79.9322 77.5699 81.4147 76.8961C82.3886 76.4534 82.9817 75.6495 83.4836 74.7015C84.0716 73.5908 84.4474 72.6193 84.252 71.2731C84.0355 69.7811 82.848 68.1936 81.991 66.9875C80.2934 64.5983 79.6593 61.1174 77.2621 59.2734C76.4408 58.6416 75.7315 57.7132 75.001 56.9828C74.5533 56.5351 74.1365 55.9392 73.7745 55.4163C73.2187 54.6136 72.4703 53.9612 71.9125 53.1553C71.0882 51.9647 69.933 51.1854 68.8239 50.3032C68.1758 49.7877 67.5592 49.2568 66.888 48.7663C66.4936 48.4781 66.1779 48.2809 65.7131 48.0348C64.934 47.6223 63.9188 47.4986 63.0753 47.2368C62.345 47.0101 61.5681 46.5359 60.9398 46.0989C59.839 45.3331 58.2161 44.5404 56.8833 44.2442C55.448 43.9253 53.6727 43.3871 52.1765 43.7196C51.9125 43.7783 51.4971 44.7902 51.3711 45.0422C51.1744 45.4357 51.2973 46.0758 51.2973 46.5053C51.2973 49.4225 51.7226 52.7666 51.0313 55.6011C50.7634 56.6993 50.6322 58.0751 50.6322 59.2143C50.6322 59.5246 50.6322 59.8349 50.6322 60.1453C50.6322 61.1406 51.0182 61.0517 52.0361 61.2019C53.4651 61.4127 54.5651 61.726 55.4868 62.8866C56.4332 64.0783 56.6265 65.4355 57.9325 66.3742C59.8685 67.7657 61.8566 69.1956 63.4595 70.9849C64.2441 71.8608 65.2832 73.1123 64.7156 74.369C64.4042 75.0587 63.9422 75.7881 63.5334 76.4306C62.8152 77.5592 62.2249 78.5224 61.3315 79.497C60.6007 80.2942 59.4242 80.4541 58.6123 81.0856C57.6489 81.8349 56.5438 82.3602 55.605 83.1545C55.0206 83.649 54.2884 84.235 53.6248 84.6101C53.0731 84.9219 52.6894 85.4557 52.1618 85.7998C51.6515 86.1325 51.114 86.43 50.6322 86.8047C49.8932 87.3795 48.8734 87.4266 48.0018 87.6618C47.2899 87.8539 46.4175 88.2509 45.6816 88.2677C44.5959 88.2923 44.6006 87.3561 44.3516 86.4795C43.7698 84.4314 44.4328 82.924 45.2087 81.056C45.7426 79.7708 45.9886 78.5252 46.3762 77.199C46.753 75.91 47.2665 74.677 47.6767 73.4011C48.4154 71.1029 49.2139 68.5451 49.3022 66.1156C49.3367 65.1666 49.7494 64.3317 49.9672 63.426C50.2049 62.4377 50.3565 61.4906 50.5288 60.5C50.7141 59.4346 50.8561 58.0442 51.3564 57.0715C51.4789 56.8332 51.7142 56.7603 51.7997 56.4804C51.9133 56.1086 52.0758 55.753 52.3613 55.4755C52.8054 55.0437 53.4979 55.6683 53.8982 55.8745C55.5987 56.7505 57.3647 57.405 59.1739 58.0173C61.5496 58.8212 63.9121 59.4628 65.9865 60.899C66.7646 61.4376 67.4772 61.8811 67.9963 62.7019C68.7382 63.8749 69.2183 65.2023 69.8509 66.4333C70.4674 67.6328 71.1582 68.4025 71.4543 69.714C71.638 70.5274 71.843 71.1828 71.7721 72.0341C71.6122 73.9529 69.0956 75.9871 67.7377 77.0882C67.2567 77.4782 66.83 77.9219 66.3929 78.3591C65.8425 78.9095 64.8669 79.1682 64.1467 79.4083C62.9819 79.7966 64.3792 79.1666 64.723 79.0093C66.5064 78.1932 68.4988 77.3616 70.4938 77.3616C71.1885 77.3616 70.0911 77.5652 69.8731 77.635C68.0744 78.2105 66.1805 78.5405 64.3535 79.0241C63.7177 79.1924 62.9316 79.5588 62.4103 79.9551C62.2495 80.0773 60.9381 81.1362 60.829 81.0634C60.7146 80.9872 62.6045 79.7781 62.6319 79.763C64.0908 78.9591 65.7185 78.4274 67.3387 78.0561C68.9466 77.6876 70.6609 77.915 72.2376 77.4946C73.7772 77.084 75.5085 77.2518 77.0995 76.9626" stroke="white" stroke-width="3" stroke-linecap="round"/>
<path d="M75.271 34.9258C76.1645 34.9258 77.0183 35.4152 77.7757 35.8598C78.5024 36.2863 79.1661 36.7037 79.7817 37.2926C81.655 39.0845 83.6988 40.7274 85.6243 42.4666C87.3735 44.0465 88.9829 45.7972 90.4534 47.6353C91.3733 48.7852 92.1129 50.1438 93.1333 51.1642" stroke="white" stroke-width="10" stroke-linecap="round"/>
<path d="M77.9456 22.7947C79.527 22.7947 80.7563 23.8596 82.0529 24.652C83.1587 25.3277 84.332 25.9743 85.3961 26.711C88.3499 28.7559 91.426 30.5838 94.184 32.8986C95.6501 34.1291 97.0669 35.4025 98.3922 36.7831C99.8871 38.3403 101.149 40.0733 102.446 41.8032C103.555 43.2814 104.374 44.7323 104.935 46.4837C105.203 47.3171 105.563 48.1314 105.933 48.8717" stroke="white" stroke-width="10" stroke-linecap="round"/>
<path d="M80.6201 9.61279C80.8911 9.85671 81.2946 9.83886 81.6178 9.99487C82.1208 10.2377 82.659 10.4553 83.1939 10.6158C83.8936 10.8257 84.543 11.1479 85.221 11.3852C86.2701 11.7524 87.1836 12.4342 88.1662 12.9348C89.1417 13.4317 90.1183 13.9708 91.0318 14.5798C92.0952 15.2887 93.2157 15.894 94.2848 16.5858C95.4141 17.3165 96.7416 17.9573 97.7607 18.8358C98.4805 19.4564 99.2727 19.9938 100.011 20.5976C100.868 21.2988 101.74 22.0493 102.643 22.6991C103.504 23.3189 104.197 24.0729 104.882 24.8748C105.818 25.9696 106.833 26.9948 107.674 28.1649C108.662 29.5403 109.519 30.9695 110.428 32.3891C110.716 32.8396 110.963 33.2992 111.192 33.7847C111.482 34.4019 111.939 34.9153 112.19 35.5518C112.648 36.7156 113.401 37.6977 113.978 38.7889C114.214 39.2358 114.449 39.657 114.721 40.0837C115.068 40.6278 115.233 41.262 115.581 41.8031C116.295 42.9161 116.824 44.1939 117.395 45.3374" stroke="white" stroke-width="10" stroke-linecap="round"/>
<path d="M80.2667 10.2667C80.5333 11.4667 83.2 13.3333 86.4 14.4C94.8 17.2 108.533 30.4 113.067 40.1333C117.2 49.2 120.8 50.8 119.6 43.2C117.867 32.6667 104.267 17.3333 91.3333 11.2C83.3333 7.46666 79.6 7.06666 80.2667 10.2667Z" fill="black"/>
<path d="M78.1333 20.9333C76.5333 22.6667 77.4667 25.2 80 26C85.4667 27.7333 96.1333 37.6 100.133 44.6667C102.4 48.6667 104.8 52 105.333 52C110.267 52 106.267 42.4 97.7333 33.2C91.6 26.6667 79.8667 19.2 78.1333 20.9333Z" fill="black"/>
<path d="M74.6667 34.6668C74.6667 35.3335 78.5334 39.8668 83.3334 44.6668C88.1334 49.4668 92.6667 53.3335 93.3334 53.3335C95.7334 53.3335 94.6667 49.8668 90.8 44.4002C85.4667 37.0668 74.6667 30.5335 74.6667 34.6668Z" fill="black"/>
<path d="M46.6667 42.6668C44.2667 46.0001 44 47.7334 44.8 52.4001C45.3333 55.4668 45.6 59.2001 45.4667 60.6668C45.3333 62.1334 39.4667 69.0668 32.4 76.1334L19.7333 88.9334L19.0667 97.4668C18.4 104.933 17.7333 106.667 13.6 110.933C9.86667 114.933 9.2 116.4 10.4 117.6C11.6 118.8 12.9333 118.267 16.5333 114.8C19.7333 111.6 22.5333 110.267 26.8 109.867C37.8667 108.533 39.2 107.733 51.3333 96.0001C64.8 82.6668 67.6 81.2001 74.8 83.0668C79.0667 84.1334 80.6667 83.8668 84.6667 81.3334C88.4 79.0668 89.3333 77.6001 89.3333 74.2668C89.3333 61.0668 66.8 38.6668 53.4667 38.6668C50.5333 38.6668 48.8 39.7334 46.6667 42.6668ZM61.4667 46.1334C71.2 51.0668 84 66.2668 84 72.8001C84 77.0668 81.8667 78.0001 72.9333 77.6001C63.4667 77.0668 61.8667 78.0001 46.6667 92.8001C36.8 102.267 34.6667 103.867 30 104.267C24.1333 104.667 24 104.667 24 97.8668C24 93.6001 25.4667 91.6001 36.5333 80.1334C43.4667 72.9334 49.6 65.4668 50.1333 63.4668C50.5333 61.4668 50.6667 56.9334 50.2667 53.4668C49.2 44.0001 52.9333 41.6001 61.4667 46.1334Z" fill="black"/>
<path d="M49.6 75.0668C46.2666 78.5335 45.7333 81.3335 48.4 81.3335C50.5333 81.3335 56 75.7335 56 73.6002C56 70.9335 52.6666 71.7335 49.6 75.0668Z" fill="black"/>
</svg>
